<?xml version="1.0" encoding="UTF-8" standalone="no"?>
<!DOCTYPE svg PUBLIC "-//W3C//DTD SVG 1.1//EN" "http://www.w3.org/Graphics/SVG/1.1/DTD/svg11.dtd">
<svg version="1.1" xmlns="http://www.w3.org/2000/svg" xmlns:xlink="http://www.w3.org/1999/xlink" preserveAspectRatio="xMidYMid meet" viewBox="0.30846774140000005 0.22620967825 391.31250025860004 84.35336017549149" width="391.31" height="84.35"><defs><path d="M111.68 29.47L112.18 29.51L112.66 29.57L113.13 29.64L113.59 29.73L114.02 29.84L114.45 29.96L114.85 30.1L115.24 30.26L115.62 30.44L115.98 30.64L116.33 30.86L116.66 31.09L116.97 31.35L117.27 31.62L117.54 31.91L117.8 32.2L118.04 32.51L118.25 32.83L118.45 33.16L118.62 33.51L118.77 33.87L118.91 34.25L119.02 34.65L119.11 35.06L119.18 35.49L119.23 35.94L119.26 36.4L119.27 36.89L119.26 37.38L119.23 37.84L119.18 38.29L119.11 38.72L119.02 39.13L118.91 39.53L118.77 39.9L118.62 40.27L118.45 40.61L118.25 40.95L118.04 41.27L117.8 41.58L117.54 41.87L117.27 42.15L116.97 42.43L116.66 42.68L116.33 42.92L115.98 43.14L115.62 43.34L115.24 43.52L114.85 43.68L114.45 43.82L114.02 43.94L113.59 44.05L113.13 44.14L112.66 44.21L112.18 44.27L111.68 44.31L111.17 44.33L110.64 44.34L105.84 44.34L105.84 52.17L105.84 52.2L105.84 52.24L105.84 52.28L105.84 52.32L105.83 52.36L105.83 52.39L105.82 52.43L105.81 52.47L105.8 52.51L105.78 52.55L105.76 52.59L105.74 52.62L105.71 52.66L105.68 52.7L105.65 52.74L105.61 52.77L105.56 52.8L105.51 52.83L105.46 52.85L105.41 52.87L105.35 52.89L105.29 52.9L105.23 52.91L105.18 52.92L105.12 52.92L105.07 52.93L105.01 52.93L104.97 52.93L104.92 52.93L104.88 52.93L101.62 52.93L101.58 52.93L101.54 52.92L101.5 52.91L101.46 52.89L101.42 52.87L101.39 52.85L101.35 52.82L101.31 52.8L101.27 52.76L101.23 52.73L101.19 52.7L101.16 52.66L101.12 52.62L101.08 52.59L101.04 52.55L101 52.51L100.97 52.47L100.95 52.43L100.92 52.39L100.91 52.36L100.89 52.32L100.88 52.28L100.87 52.24L100.86 52.2L100.86 52.17L100.85 52.13L100.85 52.09L100.85 52.05L100.85 52.01L100.85 51.97L100.85 30.21L100.85 30.17L100.85 30.13L100.85 30.09L100.85 30.05L100.86 30.01L100.86 29.98L100.87 29.94L100.88 29.9L100.89 29.86L100.91 29.82L100.92 29.79L100.95 29.75L100.97 29.71L101 29.67L101.04 29.63L101.08 29.6L101.12 29.57L101.16 29.54L101.19 29.52L101.23 29.5L101.27 29.48L101.31 29.47L101.35 29.46L101.39 29.45L101.42 29.45L101.46 29.45L101.5 29.44L101.54 29.44L101.58 29.44L101.62 29.44L110.64 29.44L111.17 29.45L111.68 29.47ZM105.84 40.52L110.64 40.52L111.5 40.36L112.23 40.18L112.85 39.99L113.34 39.78L113.71 39.56L114.1 39.17L114.38 38.7L114.55 38.16L114.64 37.55L114.67 36.89L114.62 36.23L114.5 35.62L114.29 35.07L114.03 34.6L113.71 34.22L113.3 33.9L112.77 33.63L112.13 33.43L111.42 33.3L110.64 33.26L105.84 33.26L105.84 40.52Z" id="b3tued2pOH"></path><path d="M122.73 51.97C122.73 50.39 122.73 37.71 122.73 36.13C122.73 35.93 122.73 35.74 122.92 35.55C123.11 35.36 123.3 35.36 123.5 35.36C123.77 35.36 125.92 35.36 126.18 35.36C126.38 35.36 126.57 35.36 126.76 35.55C126.95 35.74 126.95 35.93 126.95 36.13C126.95 36.28 126.95 37.5 126.95 37.65C128.1 36.13 129.64 35.36 131.75 35.36C131.88 35.36 132.96 35.36 133.09 35.36C133.29 35.36 133.48 35.36 133.67 35.55C133.86 35.74 133.86 35.93 133.86 36.13C133.86 36.37 133.86 38.36 133.86 38.61C133.86 38.8 133.86 38.99 133.67 39.18C133.48 39.37 133.29 39.37 133.09 39.37C132.86 39.37 131.02 39.37 130.79 39.37C129.64 39.37 128.87 39.75 128.3 40.33C127.72 40.9 127.34 41.85 127.34 42.81C127.34 43.73 127.34 51.06 127.34 51.97C127.34 52.17 127.34 52.36 127.14 52.55C126.95 52.74 126.76 52.93 126.57 52.93C126.26 52.93 123.8 52.93 123.5 52.93C123.3 52.93 123.11 52.74 122.92 52.55C122.73 52.36 122.73 52.17 122.73 51.97Z" id="b1ALTECZCx"></path><path d="M145.74 35.05L146.37 35.15L146.98 35.27L147.56 35.43L148.13 35.63L148.67 35.86L149.18 36.12L149.67 36.41L150.13 36.73L150.56 37.08L150.96 37.46L151.32 37.86L151.64 38.3L151.93 38.76L152.18 39.24L152.39 39.75L152.56 40.28L152.69 40.83L152.79 41.41L152.84 42L152.86 42.62L152.86 45.67L152.8 46.29L152.7 46.88L152.58 47.46L152.43 48.01L152.24 48.54L152.03 49.05L151.8 49.53L151.53 49.99L151.24 50.43L150.91 50.83L150.56 51.21L150.13 51.56L149.68 51.88L149.21 52.17L148.71 52.43L148.19 52.66L147.64 52.86L147.06 53.02L146.45 53.14L145.81 53.24L145.13 53.29L144.42 53.31L143.7 53.25L143.03 53.17L142.38 53.06L141.77 52.93L141.19 52.78L140.64 52.6L140.12 52.38L139.63 52.14L139.15 51.87L138.7 51.56L138.28 51.21L137.88 50.83L137.51 50.43L137.19 49.99L136.91 49.53L136.66 49.05L136.45 48.54L136.28 48.01L136.14 47.46L136.05 46.88L135.99 46.29L135.97 45.67L135.97 42.62L136.04 42L136.13 41.41L136.26 40.83L136.41 40.28L136.59 39.75L136.8 39.24L137.04 38.76L137.31 38.3L137.6 37.86L137.92 37.46L138.28 37.08L138.7 36.73L139.15 36.41L139.63 36.12L140.12 35.86L140.64 35.63L141.19 35.43L141.77 35.27L142.38 35.15L143.03 35.05L143.7 35L144.42 34.98L145.09 35L145.74 35.05ZM143.34 38.54L142.86 38.7L142.43 38.93L142.05 39.21L141.73 39.56L141.46 39.98L141.23 40.45L141.03 40.97L140.89 41.54L140.8 42.16L140.77 42.81L140.77 45.48L140.8 46.2L140.89 46.83L141.03 47.39L141.23 47.89L141.46 48.33L141.73 48.73L142.05 49.08L142.43 49.36L142.86 49.59L143.34 49.75L143.86 49.84L144.42 49.87L144.98 49.84L145.5 49.75L145.98 49.59L146.41 49.36L146.79 49.08L147.1 48.73L147.38 48.32L147.61 47.84L147.8 47.32L147.94 46.75L148.03 46.13L148.06 45.48L148.06 42.81L148.03 42.09L147.94 41.46L147.8 40.9L147.61 40.4L147.38 39.96L147.1 39.56L146.79 39.21L146.41 38.93L145.98 38.7L145.5 38.54L144.98 38.45L144.42 38.42L143.86 38.45L143.34 38.54Z" id="f56a5YK1yd"></path><path d="M155.93 45.48C155.93 45.39 155.93 44.95 155.93 44.15C155.93 43.34 155.93 42.9 155.93 42.81C155.93 40.33 156.89 38.42 158.24 37.08C159.77 35.74 161.69 34.98 164.19 34.98C165.91 34.98 167.45 35.36 168.6 35.93C169.75 36.51 170.71 37.27 171.29 38.23C171.86 39.18 172.25 39.94 172.25 40.9C172.25 41.09 172.25 41.28 172.06 41.47C171.86 41.66 171.67 41.66 171.48 41.66C171.17 41.66 168.72 41.66 168.41 41.66C168.22 41.66 168.03 41.66 167.83 41.47C167.64 41.28 167.64 41.28 167.45 40.9C167.07 40.14 166.68 39.37 166.11 38.99C165.53 38.61 164.76 38.42 164 38.42C162.84 38.42 161.88 38.8 161.31 39.56C160.73 40.33 160.35 41.28 160.35 42.81C160.35 42.9 160.35 43.34 160.35 44.15C160.35 44.83 160.35 45.21 160.35 45.29C160.54 48.16 161.69 49.68 164 49.68C164.95 49.68 165.53 49.49 166.11 49.11C166.68 48.73 167.07 48.16 167.45 47.2C167.45 47.01 167.64 46.82 167.83 46.63C168.03 46.44 168.22 46.44 168.41 46.44C168.72 46.44 171.17 46.44 171.48 46.44C171.67 46.44 171.86 46.44 172.06 46.63C172.25 46.82 172.25 47.01 172.25 47.2C172.25 47.96 171.86 48.92 171.29 49.68C170.71 50.64 169.75 51.4 168.6 51.97C167.45 52.55 165.91 52.93 164 52.93C161.69 53.12 159.77 52.55 158.24 51.21C156.7 49.87 155.93 47.96 155.93 45.48Z" id="b62x4Ahdyy"></path><path d="M175.9 45.67C175.9 44.74 175.9 37.25 175.9 36.32C175.9 36.13 175.9 35.93 176.09 35.74C176.28 35.55 176.47 35.55 176.66 35.55C176.97 35.55 179.43 35.55 179.73 35.55C179.93 35.55 180.12 35.55 180.31 35.74C180.5 35.93 180.5 36.13 180.5 36.32C180.5 37.23 180.5 44.57 180.5 45.48C180.5 48.16 181.65 49.68 184.15 49.68C185.3 49.68 186.26 49.3 187.03 48.54C187.8 47.77 187.99 46.82 187.99 45.48C187.99 44.57 187.99 37.23 187.99 36.32C187.99 36.13 187.99 35.93 188.18 35.74C188.37 35.55 188.56 35.55 188.75 35.55C189.06 35.55 191.52 35.55 191.83 35.55C192.02 35.55 192.21 35.55 192.4 35.74C192.59 35.93 192.59 36.13 192.59 36.32C192.59 37.9 192.59 50.58 192.59 52.17C192.59 52.36 192.59 52.55 192.4 52.74C192.21 52.93 192.02 52.93 191.83 52.93C191.54 52.93 189.23 52.93 188.95 52.93C188.75 52.93 188.56 52.93 188.37 52.74C188.18 52.55 188.18 52.36 188.18 52.17C188.18 52.03 188.18 50.96 188.18 50.83C187.03 52.55 185.11 53.31 182.61 53.31C180.31 53.12 178.77 52.55 177.62 51.21C176.47 49.87 175.9 47.96 175.9 45.67Z" id="cpwh5kqtp"></path><path d="M197.01 51.97C197.01 50.39 197.01 37.71 197.01 36.13C197.01 35.93 197.01 35.74 197.2 35.55C197.39 35.36 197.58 35.36 197.78 35.36C198.04 35.36 200.19 35.36 200.46 35.36C200.65 35.36 200.85 35.36 201.04 35.55C201.23 35.74 201.23 35.93 201.23 36.13C201.23 36.28 201.23 37.5 201.23 37.65C202.38 36.13 203.92 35.36 206.03 35.36C206.16 35.36 207.24 35.36 207.37 35.36C207.56 35.36 207.76 35.36 207.95 35.55C208.14 35.74 208.14 35.93 208.14 36.13C208.14 36.37 208.14 38.36 208.14 38.61C208.14 38.8 208.14 38.99 207.95 39.18C207.76 39.37 207.95 39.56 207.56 39.56C207.3 39.56 205.15 39.56 204.88 39.56C203.73 39.56 202.96 39.94 202.38 40.52C201.81 41.09 201.42 42.04 201.42 43C201.42 43.92 201.42 51.25 201.42 52.17C201.42 52.36 201.42 52.55 201.23 52.74C201.04 52.93 200.85 52.93 200.65 52.93C200.35 52.93 197.89 52.93 197.58 52.93C197.58 52.93 197.39 52.74 197.2 52.55C197.01 52.36 197.01 52.17 197.01 51.97Z" id="baQCoUN0n"></path><path d="M219.68 35.02L220.15 35.06L220.6 35.13L221.04 35.21L221.47 35.31L221.88 35.43L222.27 35.58L222.65 35.74L223.01 35.92L223.36 36.12L223.69 36.35L224 36.59L224.3 36.86L224.58 37.15L224.84 37.46L225.12 37.76L225.37 38.07L225.6 38.4L225.82 38.74L226.01 39.11L226.18 39.48L226.34 39.87L226.47 40.28L226.59 40.7L226.69 41.13L226.77 41.57L226.84 42.03L226.89 42.49L226.92 42.97L226.94 43.46L226.95 43.95L226.95 44.72L226.95 44.75L226.95 44.79L226.95 44.83L226.95 44.86L226.94 44.9L226.94 44.93L226.93 44.97L226.93 45L226.92 45.04L226.9 45.08L226.89 45.11L226.87 45.15L226.85 45.18L226.82 45.22L226.79 45.26L226.76 45.29L226.72 45.32L226.69 45.35L226.65 45.38L226.61 45.4L226.58 45.42L226.54 45.44L226.51 45.45L226.47 45.46L226.43 45.47L226.4 45.47L226.36 45.48L226.33 45.48L226.29 45.48L226.25 45.48L226.22 45.48L226.18 45.48L215.05 45.48L215.05 45.67L215.05 45.92L215.07 46.16L215.09 46.39L215.12 46.61L215.16 46.82L215.2 47.03L215.25 47.22L215.31 47.42L215.38 47.6L215.45 47.78L215.53 47.95L215.62 48.12L215.71 48.28L215.8 48.43L215.9 48.58L216.01 48.73L216.12 48.87L216.24 49L216.37 49.12L216.51 49.23L216.66 49.33L216.81 49.43L216.97 49.51L217.14 49.59L217.31 49.65L217.49 49.71L217.68 49.76L217.87 49.8L218.07 49.83L218.27 49.86L218.48 49.87L218.7 49.87L218.94 49.87L219.18 49.85L219.41 49.81L219.64 49.77L219.85 49.71L220.06 49.64L220.26 49.56L220.45 49.47L220.63 49.36L220.81 49.25L220.99 49.12L221.15 48.99L221.31 48.84L221.47 48.69L221.62 48.52L221.77 48.35L222.15 47.96L225.61 47.96L225.64 47.96L225.68 47.96L225.71 47.97L225.75 47.97L225.79 47.97L225.82 47.97L225.86 47.98L225.89 47.99L225.93 48L225.97 48.01L226 48.03L226.04 48.04L226.07 48.07L226.11 48.09L226.15 48.12L226.18 48.16L226.22 48.19L226.25 48.22L226.27 48.25L226.29 48.27L226.31 48.29L226.33 48.31L226.34 48.33L226.35 48.35L226.36 48.36L226.36 48.38L226.37 48.4L226.37 48.42L226.37 48.45L226.37 48.47L226.37 48.5L226.37 48.54L226.37 48.64L226.36 48.75L226.33 48.86L226.31 48.97L226.27 49.08L226.22 49.19L226.17 49.31L226.11 49.42L226.04 49.54L225.97 49.66L225.89 49.78L225.81 49.91L225.72 50.04L225.62 50.17L225.52 50.31L225.41 50.45L225.3 50.59L225.18 50.72L225.05 50.86L224.91 50.99L224.77 51.11L224.61 51.24L224.45 51.36L224.29 51.47L224.11 51.59L223.93 51.7L223.74 51.81L223.55 51.92L223.35 52.03L223.15 52.14L222.94 52.25L222.73 52.36L222.51 52.46L222.29 52.55L222.06 52.64L221.82 52.72L221.59 52.79L221.34 52.85L221.09 52.9L220.83 52.95L220.57 52.99L220.3 53.03L220.02 53.06L219.73 53.08L219.44 53.1L219.14 53.11L218.82 53.12L218.5 53.12L218.04 53.11L217.59 53.09L217.14 53.06L216.71 53.01L216.29 52.94L215.88 52.86L215.48 52.76L215.1 52.64L214.73 52.51L214.37 52.36L214.03 52.18L213.7 51.99L213.39 51.78L213.09 51.55L212.82 51.29L212.55 51.02L212.28 50.73L212.02 50.43L211.77 50.12L211.55 49.8L211.34 49.46L211.15 49.12L210.98 48.76L210.83 48.39L210.69 48.01L210.58 47.61L210.48 47.2L210.4 46.78L210.33 46.33L210.29 45.88L210.26 45.4L210.25 44.91L210.25 44.15L210.26 43.62L210.29 43.11L210.33 42.61L210.4 42.13L210.48 41.67L210.58 41.22L210.69 40.79L210.83 40.37L210.98 39.97L211.15 39.58L211.34 39.2L211.55 38.83L211.77 38.47L212.02 38.12L212.28 37.79L212.55 37.46L212.85 37.18L213.15 36.92L213.46 36.67L213.78 36.43L214.12 36.21L214.46 36L214.82 35.82L215.19 35.65L215.58 35.5L215.98 35.36L216.39 35.25L216.82 35.15L217.26 35.08L217.72 35.02L218.2 34.99L218.7 34.98L219.19 34.99L219.68 35.02ZM216.95 38.51L216.32 38.87L215.82 39.37L215.42 40.01L215.12 40.78L214.93 41.65L214.86 42.62L222.15 42.62L221.95 41.48L221.72 40.56L221.47 39.86L221.19 39.37L220.69 38.87L220.06 38.51L219.33 38.3L218.5 38.23L217.68 38.3L216.95 38.51Z" id="b5y7sDww0f"></path><path d="M230.4 51.97C230.4 50.39 230.4 37.71 230.4 36.13C230.4 35.93 230.4 35.74 230.6 35.55C230.79 35.36 230.98 35.36 231.17 35.36C231.44 35.36 233.59 35.36 233.86 35.36C234.05 35.36 234.24 35.36 234.44 35.55C234.63 35.74 234.63 35.93 234.63 36.13C234.63 36.24 234.63 37.16 234.63 37.27C235.78 35.74 237.51 34.98 239.43 34.98C241.92 34.98 243.65 35.93 244.61 38.03C245.18 37.08 245.95 36.51 246.91 35.93C247.87 35.36 249.02 35.17 250.17 35.17C252.09 35.17 253.44 35.74 254.78 37.08C255.93 38.42 256.51 40.14 256.51 42.62C256.51 43.57 256.51 51.21 256.51 52.17C256.51 52.36 256.51 52.55 256.32 52.74C256.12 52.93 255.93 52.93 255.74 52.93C255.45 52.93 253.15 52.93 252.86 52.93C252.67 52.93 252.48 52.93 252.29 52.74C252.09 52.55 252.09 52.36 252.09 52.17C252.09 51.23 252.09 43.74 252.09 42.81C252.09 41.47 251.71 40.33 251.13 39.75C250.56 39.18 249.79 38.8 248.83 38.8C247.87 38.8 247.3 39.18 246.53 39.75C245.95 40.33 245.57 41.47 245.57 42.81C245.57 43.74 245.57 51.23 245.57 52.17C245.57 52.36 245.57 52.55 245.38 52.74C245.18 52.93 244.99 52.93 244.8 52.93C244.53 52.93 242.38 52.93 242.11 52.93C241.92 52.93 241.73 52.93 241.54 52.74C241.35 52.55 241.35 52.36 241.35 52.17C241.35 51.23 241.35 43.74 241.35 42.81C241.35 41.47 240.96 40.33 240.39 39.75C239.81 39.18 239.04 38.8 238.08 38.8C237.12 38.8 236.55 39.18 235.78 39.75C235.2 40.33 234.82 41.47 234.82 42.81C234.82 43.74 234.82 51.23 234.82 52.17C234.82 52.36 234.82 52.55 234.63 52.74C234.44 52.93 234.24 52.93 234.05 52.93C233.76 52.93 231.46 52.93 231.17 52.93C230.98 52.93 230.79 52.74 230.6 52.55C230.4 52.36 230.4 52.17 230.4 51.97Z" id="bAUkWgegA"></path><path d="M269.64 35.02L270.14 35.07L270.62 35.15L271.09 35.24L271.54 35.36L271.97 35.5L272.38 35.66L272.77 35.85L273.15 36.05L273.51 36.29L273.85 36.54L274.16 36.82L274.46 37.13L274.74 37.46L275.04 37.78L275.31 38.11L275.55 38.47L275.77 38.84L275.97 39.23L276.15 39.64L276.3 40.06L276.44 40.5L276.55 40.95L276.65 41.42L276.72 41.9L276.78 42.4L276.82 42.91L276.85 43.42L276.85 43.95L276.85 44.72L276.85 44.76L276.85 44.79L276.85 44.83L276.85 44.87L276.85 44.91L276.84 44.95L276.83 44.99L276.82 45.02L276.81 45.06L276.8 45.1L276.78 45.14L276.75 45.18L276.73 45.21L276.7 45.25L276.66 45.29L276.62 45.33L276.58 45.36L276.55 45.38L276.51 45.41L276.47 45.43L276.43 45.44L276.39 45.45L276.35 45.46L276.32 45.47L276.28 45.47L276.24 45.48L276.2 45.48L276.16 45.48L276.12 45.48L276.09 45.48L264.95 45.48L264.95 45.67L264.96 45.94L264.97 46.19L265 46.43L265.03 46.66L265.07 46.89L265.13 47.11L265.18 47.31L265.25 47.51L265.33 47.71L265.41 47.89L265.5 48.07L265.59 48.25L265.69 48.41L265.8 48.57L265.91 48.73L266.03 48.88L266.16 49.01L266.3 49.14L266.45 49.26L266.61 49.36L266.78 49.46L266.95 49.55L267.13 49.62L267.32 49.69L267.52 49.75L267.72 49.79L267.93 49.83L268.15 49.85L268.37 49.87L268.6 49.87L268.86 49.87L269.12 49.84L269.36 49.81L269.6 49.76L269.82 49.69L270.04 49.61L270.25 49.52L270.45 49.41L270.65 49.3L270.83 49.17L271.01 49.02L271.19 48.87L271.35 48.71L271.51 48.53L271.67 48.35L272.05 47.96L275.51 47.96L275.55 47.96L275.59 47.96L275.62 47.97L275.66 47.97L275.7 47.97L275.74 47.98L275.78 47.98L275.82 47.99L275.86 48.01L275.89 48.02L275.93 48.04L275.97 48.06L276.01 48.09L276.05 48.12L276.09 48.16L276.12 48.19L276.15 48.22L276.18 48.25L276.2 48.27L276.22 48.3L276.24 48.32L276.25 48.34L276.26 48.36L276.27 48.38L276.27 48.4L276.27 48.42L276.28 48.44L276.28 48.47L276.28 48.5L276.28 48.54L276.27 48.65L276.26 48.77L276.23 48.88L276.2 49L276.16 49.12L276.11 49.24L276.05 49.36L275.98 49.48L275.9 49.61L275.82 49.74L275.73 49.87L275.64 50.01L275.54 50.15L275.43 50.3L275.32 50.45L275.2 50.6L275.07 50.74L274.93 50.88L274.78 51.02L274.62 51.15L274.45 51.28L274.28 51.41L274.1 51.53L273.91 51.66L273.71 51.78L273.51 51.89L273.3 52.01L273.08 52.13L272.86 52.24L272.63 52.36L272.4 52.47L272.16 52.57L271.92 52.66L271.66 52.74L271.41 52.81L271.14 52.87L270.87 52.93L270.6 52.98L270.31 53.02L270.01 53.05L269.71 53.08L269.4 53.1L269.08 53.11L268.75 53.12L268.41 53.12L267.92 53.11L267.44 53.09L266.98 53.05L266.53 52.99L266.1 52.92L265.68 52.82L265.27 52.71L264.88 52.57L264.5 52.42L264.13 52.24L263.77 52.05L263.43 51.82L263.09 51.58L262.77 51.31L262.46 51.02L262.16 50.71L261.88 50.39L261.63 50.05L261.39 49.71L261.18 49.35L260.98 48.98L260.81 48.59L260.66 48.19L260.52 47.77L260.41 47.34L260.32 46.89L260.25 46.42L260.2 45.94L260.17 45.43L260.15 44.91L260.15 44.15L260.17 43.58L260.2 43.04L260.25 42.52L260.32 42.01L260.41 41.52L260.52 41.05L260.66 40.6L260.81 40.16L260.98 39.73L261.18 39.32L261.39 38.93L261.63 38.54L261.88 38.17L262.16 37.81L262.46 37.46L262.77 37.16L263.09 36.88L263.43 36.62L263.78 36.37L264.14 36.14L264.51 35.93L264.9 35.74L265.3 35.56L265.72 35.41L266.15 35.28L266.61 35.18L267.08 35.09L267.57 35.03L268.07 34.99L268.6 34.98L269.13 34.99L269.64 35.02ZM266.85 38.51L266.22 38.87L265.72 39.37L265.33 40.01L265.03 40.78L264.83 41.65L264.76 42.62L272.05 42.62L271.85 41.48L271.62 40.56L271.37 39.86L271.1 39.37L270.59 38.87L269.97 38.51L269.23 38.3L268.41 38.23L267.58 38.3L266.85 38.51Z" id="a7tcMz0O1"></path><path d="M280.31 51.97C280.31 50.39 280.31 37.71 280.31 36.13C280.31 35.93 280.31 35.74 280.5 35.55C280.69 35.36 280.88 35.36 281.08 35.36C281.36 35.36 283.67 35.36 283.95 35.36C284.15 35.36 284.34 35.36 284.53 35.55C284.72 35.74 284.72 35.93 284.72 36.13C284.72 36.28 284.72 37.5 284.72 37.65C286.07 35.93 287.99 35.17 290.29 35.17C292.4 35.17 293.94 35.93 295.28 37.27C296.62 38.61 297.2 40.52 297.2 42.81C297.2 43.74 297.2 51.23 297.2 52.17C297.2 52.36 297.2 52.55 297.01 52.74C296.81 52.93 296.62 52.93 296.43 52.93C296.12 52.93 293.67 52.93 293.36 52.93C293.17 52.93 292.98 52.93 292.78 52.74C292.59 52.55 292.59 52.36 292.59 52.17C292.59 51.25 292.59 43.92 292.59 43C292.59 41.66 292.21 40.71 291.63 39.94C291.06 39.18 290.1 38.8 288.95 38.8C287.79 38.8 286.83 39.18 286.26 39.94C285.49 40.71 285.3 41.66 285.3 43C285.3 43.92 285.3 51.25 285.3 52.17C285.3 52.36 285.3 52.55 285.11 52.74C284.91 52.93 284.72 52.93 284.53 52.93C284.22 52.93 281.77 52.93 281.46 52.93C280.88 52.93 280.69 52.74 280.5 52.55C280.31 52.36 280.31 52.17 280.31 51.97Z" id="a5iU7soPIh"></path><path d="M302.96 46.44C302.96 45.93 302.96 43.38 302.96 38.8C301.34 38.8 300.45 38.8 300.27 38.8C300.08 38.8 299.89 38.8 299.69 38.61C299.5 38.42 299.5 38.23 299.5 38.03C299.5 37.84 299.5 36.32 299.5 36.13C299.5 35.93 299.5 35.74 299.69 35.55C299.89 35.36 300.08 35.36 300.27 35.36C300.45 35.36 301.34 35.36 302.96 35.36C302.96 32.04 302.96 30.19 302.96 29.82C302.96 29.63 302.96 29.44 303.15 29.25C303.34 29.06 303.53 29.06 303.72 29.06C304.01 29.06 306.32 29.06 306.6 29.06C306.8 29.06 306.99 29.06 307.18 29.25C307.37 29.44 307.37 29.63 307.37 29.82C307.37 30.19 307.37 32.04 307.37 35.36C309.9 35.36 311.31 35.36 311.59 35.36C311.79 35.36 311.98 35.36 312.17 35.55C312.36 35.74 312.36 35.93 312.36 36.13C312.36 36.32 312.36 37.84 312.36 38.03C312.36 38.23 312.36 38.42 312.17 38.61C311.98 38.8 311.79 38.8 311.59 38.8C311.31 38.8 309.9 38.8 307.37 38.8C307.37 43.15 307.37 45.57 307.37 46.05C307.37 47.01 307.56 47.77 307.95 48.16C308.33 48.54 308.91 48.92 309.67 48.92C309.9 48.92 311.75 48.92 311.98 48.92C312.17 48.92 312.36 48.92 312.55 49.11C312.75 49.3 312.75 49.49 312.75 49.68C312.75 49.89 312.75 51.57 312.75 51.78C312.75 51.97 312.75 52.17 312.55 52.36C312.36 52.55 312.17 52.55 311.98 52.55C311.71 52.55 309.56 52.55 309.29 52.55C307.18 52.93 305.64 52.36 304.49 51.21C303.53 50.06 302.96 48.54 302.96 46.44Z" id="d1HX4u3Pn"></path><path d="M318.88 51.97C318.88 49.8 318.88 32.38 318.88 30.21C318.88 30.01 318.88 29.82 319.07 29.63C319.26 29.44 319.45 29.44 319.65 29.44C321.1 29.44 332.77 29.44 334.23 29.44C334.42 29.44 334.62 29.44 334.81 29.63C335 29.82 335 30.01 335 30.21C335 30.45 335 32.44 335 32.69C335 32.88 335 33.07 334.81 33.26C334.62 33.45 334.42 33.45 334.23 33.45C333.52 33.45 329.93 33.45 323.48 33.45L323.48 39.75C329.59 39.75 332.98 39.75 333.66 39.75C333.85 39.75 334.04 39.75 334.23 39.94C334.42 40.14 334.42 40.33 334.42 40.52C334.42 40.77 334.42 42.75 334.42 43C334.42 43.19 334.42 43.38 334.23 43.57C334.04 43.76 333.85 43.76 333.66 43.76C332.98 43.76 329.59 43.76 323.48 43.76C323.48 48.69 323.48 51.43 323.48 51.97C323.48 52.17 323.48 52.36 323.29 52.55C323.1 52.74 322.91 52.74 322.72 52.74C322.41 52.74 319.95 52.74 319.65 52.74C319.45 52.93 319.26 52.74 319.07 52.55C318.88 52.36 318.88 52.17 318.88 51.97Z" id="a5z6ShI7xw"></path><path d="M338.84 51.97C338.84 49.76 338.84 32.04 338.84 29.82C338.84 29.63 338.84 29.44 339.03 29.25C339.22 29.06 339.41 29.06 339.61 29.06C339.89 29.06 342.2 29.06 342.49 29.06C342.68 29.06 342.87 29.06 343.06 29.25C343.25 29.44 343.25 29.63 343.25 29.82C343.25 32.04 343.25 49.76 343.25 51.97C343.25 52.17 343.25 52.36 343.06 52.55C342.87 52.74 342.68 52.74 342.49 52.74C342.2 52.74 339.89 52.74 339.61 52.74C339.41 52.93 339.22 52.74 339.03 52.55C338.84 52.36 338.84 52.17 338.84 51.97Z" id="aNd8ATMfH"></path><path d="M356.86 35.05L357.49 35.15L358.1 35.27L358.68 35.43L359.25 35.63L359.78 35.86L360.3 36.12L360.79 36.41L361.25 36.73L361.68 37.08L362.08 37.46L362.44 37.86L362.76 38.3L363.05 38.76L363.3 39.24L363.51 39.75L363.68 40.28L363.81 40.83L363.91 41.41L363.96 42L363.98 42.62L363.98 45.67L363.92 46.29L363.82 46.88L363.7 47.46L363.54 48.01L363.36 48.54L363.15 49.05L362.92 49.53L362.65 49.99L362.35 50.43L362.03 50.83L361.68 51.21L361.25 51.56L360.8 51.88L360.33 52.17L359.83 52.43L359.31 52.66L358.76 52.86L358.18 53.02L357.57 53.14L356.93 53.24L356.25 53.29L355.54 53.31L354.82 53.25L354.15 53.17L353.5 53.06L352.89 52.93L352.31 52.78L351.76 52.6L351.24 52.38L350.74 52.14L350.27 51.87L349.82 51.56L349.4 51.21L349 50.83L348.63 50.43L348.31 49.99L348.02 49.53L347.78 49.05L347.57 48.54L347.4 48.01L347.26 47.46L347.17 46.88L347.11 46.29L347.09 45.67L347.09 42.62L347.16 42L347.25 41.41L347.38 40.83L347.53 40.28L347.71 39.75L347.92 39.24L348.16 38.76L348.42 38.3L348.72 37.86L349.04 37.46L349.4 37.08L349.82 36.73L350.27 36.41L350.74 36.12L351.24 35.86L351.76 35.63L352.31 35.43L352.89 35.27L353.5 35.15L354.15 35.05L354.82 35L355.54 34.98L356.21 35L356.86 35.05ZM354.65 38.54L354.17 38.7L353.74 38.93L353.36 39.21L353.04 39.56L352.77 39.98L352.54 40.45L352.35 40.97L352.2 41.54L352.11 42.16L352.08 42.81L352.08 45.48L352.11 46.2L352.2 46.83L352.35 47.39L352.54 47.89L352.77 48.33L353.04 48.73L353.36 49.08L353.74 49.36L354.17 49.59L354.65 49.75L355.17 49.84L355.73 49.87L356.27 49.84L356.77 49.75L357.22 49.59L357.63 49.36L358.03 49.08L358.42 48.73L358.69 48.32L358.92 47.84L359.11 47.32L359.25 46.75L359.34 46.13L359.38 45.48L359.38 42.81L359.34 42.09L359.25 41.46L359.11 40.9L358.92 40.4L358.69 39.96L358.42 39.56L358.1 39.21L357.72 38.93L357.29 38.7L356.81 38.54L356.29 38.45L355.73 38.42L355.17 38.45L354.65 38.54Z" id="c161v2jzKi"></path><path d="M366.09 36.32C366.09 36.32 366.09 36.13 366.09 35.93C366.09 35.74 366.09 35.55 366.29 35.36C366.48 35.17 366.67 35.17 366.86 35.17C367.11 35.17 369.11 35.17 369.36 35.17C369.55 35.17 369.74 35.17 369.93 35.36C370.12 35.55 370.12 35.55 370.32 35.74C370.53 36.48 371.62 40.17 373.58 46.82C375.65 40.29 376.8 36.66 377.03 35.93C377.03 35.74 377.23 35.55 377.42 35.36C377.61 35.17 377.8 35.17 377.99 35.17C378.17 35.17 379.55 35.17 379.72 35.17C379.91 35.17 380.3 35.17 380.3 35.36C380.3 35.55 380.49 35.74 380.68 35.93C380.91 36.66 382.06 40.29 384.14 46.82C386.09 40.17 387.18 36.48 387.4 35.74C387.4 35.55 387.59 35.36 387.78 35.36C387.97 35.36 388.17 35.17 388.36 35.17C388.61 35.17 390.6 35.17 390.85 35.17C391.05 35.17 391.24 35.17 391.43 35.36C391.62 35.55 391.62 35.74 391.62 35.93C391.62 35.96 391.62 36.09 391.62 36.32C388.74 45.71 387.14 50.93 386.82 51.97C386.82 52.17 386.63 52.36 386.44 52.55C386.25 52.74 386.05 52.74 385.67 52.74C385.44 52.74 383.6 52.74 383.37 52.74C382.79 52.74 382.41 52.55 382.22 51.97C381.99 51.27 380.83 47.77 378.76 41.47C376.69 47.77 375.54 51.27 375.31 51.97C375.11 52.55 374.73 52.74 374.15 52.74C373.94 52.74 372.25 52.74 372.04 52.74C371.47 52.93 371.08 52.55 370.89 51.97C369.93 48.84 366.57 37.88 366.09 36.32Z" id="h2e20CnjIv"></path><path d="M48.53 44.61C47.19 43.27 47.19 41.16 48.53 40C50.05 38.49 62.18 26.36 63.7 24.84C65.04 23.5 67.15 23.5 68.3 24.84C69.82 26.36 81.95 38.49 83.46 40C84.81 41.35 84.81 43.46 83.46 44.61C81.95 46.13 69.82 58.26 68.3 59.77C66.96 60.93 64.85 60.93 63.7 59.77C60.66 56.74 50.05 46.13 48.53 44.61Z" id="a3skIzwt1U"></path><path d="M42.92 47.69L43.16 47.75L43.39 47.82L43.63 47.91L43.85 48.02L44.08 48.15L44.29 48.29L44.5 48.46L44.69 48.64L59.66 63.61L59.85 63.81L60.01 64.02L60.16 64.23L60.29 64.45L60.4 64.68L60.49 64.92L60.57 65.16L60.63 65.4L60.67 65.64L60.69 65.89L60.7 66.14L60.69 66.38L60.66 66.63L60.62 66.87L60.56 67.11L60.48 67.34L60.39 67.57L60.28 67.79L60.15 68.01L60.01 68.21L59.86 68.41L44.69 83.57L44.52 83.76L44.34 83.92L44.15 84.07L43.94 84.2L43.73 84.31L43.51 84.4L43.29 84.47L43.06 84.52L42.82 84.56L42.58 84.58L42.34 84.58L42.1 84.56L41.86 84.52L41.62 84.47L41.39 84.4L41.15 84.31L40.93 84.2L40.7 84.07L40.49 83.92L40.28 83.76L40.09 83.57L24.92 68.41L24.74 68.24L24.58 68.06L24.43 67.86L24.3 67.66L24.19 67.45L24.1 67.23L24.03 67L23.97 66.77L23.94 66.54L23.92 66.3L23.92 66.06L23.94 65.82L23.97 65.58L24.03 65.34L24.1 65.1L24.19 64.87L24.3 64.64L24.43 64.42L24.58 64.21L24.74 64L24.92 63.8L40.09 48.64L40.26 48.46L40.44 48.29L40.63 48.15L40.84 48.02L41.05 47.91L41.27 47.82L41.49 47.75L41.73 47.69L41.96 47.65L42.2 47.64L42.44 47.64L42.68 47.65L42.92 47.69ZM40.9 52.81L40.74 52.87L40.6 52.95L40.47 53.06L38.17 55.36L38.06 55.49L37.98 55.63L37.93 55.79L37.89 55.96L37.88 56.13L37.89 56.3L37.93 56.47L37.98 56.62L38.06 56.77L38.17 56.9L51.6 70.33L51.73 70.43L51.87 70.51L52.03 70.57L52.2 70.61L52.37 70.62L52.54 70.61L52.71 70.57L52.87 70.51L53.01 70.43L53.14 70.33L55.44 67.84L55.55 67.71L55.63 67.57L55.68 67.41L55.72 67.25L55.73 67.09L55.72 66.94L55.68 66.79L55.63 66.67L55.55 66.57L55.44 66.49L42.01 53.06L41.88 52.95L41.74 52.87L41.58 52.81L41.41 52.78L41.24 52.77L41.07 52.78L40.9 52.81Z" id="bsAYTY6Z9"></path><path d="M42.62 0.24L42.76 0.26L42.91 0.28L43.06 0.31L43.21 0.35L43.35 0.4L43.5 0.45L43.64 0.51L43.78 0.57L43.92 0.65L44.06 0.73L44.19 0.82L44.32 0.91L44.45 1.01L44.57 1.12L44.69 1.23L59.66 16.4L59.78 16.5L59.89 16.61L59.99 16.72L60.08 16.84L60.17 16.96L60.25 17.09L60.33 17.22L60.39 17.35L60.45 17.48L60.51 17.62L60.55 17.76L60.59 17.9L60.63 18.04L60.65 18.19L60.67 18.33L60.69 18.48L60.7 18.63L60.7 18.78L60.69 18.93L60.68 19.07L60.66 19.22L60.64 19.37L60.61 19.52L60.57 19.66L60.53 19.81L60.48 19.95L60.42 20.09L60.36 20.23L60.29 20.37L60.21 20.5L60.13 20.63L60.05 20.76L59.96 20.88L59.86 21L21.09 59.77L20.98 59.89L20.87 60L20.76 60.1L20.64 60.19L20.52 60.28L20.4 60.36L20.27 60.43L20.14 60.5L20 60.56L19.86 60.61L19.72 60.66L19.58 60.69L19.44 60.73L19.3 60.75L19.15 60.77L19 60.78L18.85 60.78L18.71 60.78L18.56 60.77L18.41 60.75L18.26 60.73L18.11 60.69L17.97 60.66L17.82 60.61L17.68 60.56L17.53 60.5L17.39 60.43L17.25 60.36L17.12 60.28L16.98 60.19L16.85 60.1L16.72 60L16.6 59.89L16.48 59.77L1.32 44.61L1.2 44.51L1.09 44.4L0.99 44.29L0.9 44.17L0.81 44.05L0.73 43.92L0.66 43.79L0.59 43.66L0.53 43.53L0.48 43.39L0.43 43.25L0.4 43.11L0.36 42.97L0.34 42.82L0.32 42.68L0.31 42.53L0.31 42.38L0.31 42.23L0.32 42.08L0.34 41.93L0.36 41.79L0.4 41.64L0.43 41.49L0.48 41.35L0.53 41.2L0.59 41.06L0.66 40.92L0.73 40.78L0.81 40.64L0.9 40.51L0.99 40.38L1.09 40.25L1.2 40.13L1.32 40L40.09 1.23L40.19 1.12L40.3 1.01L40.41 0.91L40.53 0.82L40.65 0.73L40.78 0.65L40.91 0.57L41.04 0.51L41.17 0.45L41.31 0.4L41.45 0.35L41.59 0.31L41.73 0.28L41.88 0.26L42.02 0.24L42.17 0.23L42.32 0.23L42.47 0.23L42.62 0.24ZM34.76 11.55L34.6 11.61L34.45 11.69L34.33 11.79L32.03 14.09L31.92 14.22L31.84 14.36L31.78 14.52L31.75 14.69L31.74 14.86L31.75 15.03L31.78 15.2L31.84 15.36L31.92 15.5L32.03 15.63L45.46 29.06L45.59 29.17L45.73 29.25L45.89 29.31L46.06 29.34L46.23 29.35L46.4 29.34L46.57 29.31L46.73 29.25L46.87 29.17L47 29.06L49.3 26.76L49.4 26.64L49.48 26.49L49.54 26.33L49.58 26.17L49.59 25.99L49.58 25.82L49.54 25.65L49.48 25.5L49.4 25.35L49.3 25.23L35.86 11.79L35.74 11.69L35.59 11.61L35.44 11.55L35.27 11.51L35.1 11.5L34.92 11.51L34.76 11.55ZM40.9 5.41L40.74 5.46L40.6 5.54L40.47 5.65L38.17 7.95L38.06 8.08L37.98 8.22L37.93 8.38L37.89 8.55L37.88 8.72L37.89 8.89L37.93 9.06L37.98 9.22L38.06 9.36L38.17 9.49L51.6 22.92L51.73 23.03L51.87 23.11L52.03 23.16L52.2 23.2L52.37 23.21L52.54 23.2L52.71 23.16L52.87 23.11L53.01 23.03L53.14 22.92L55.44 20.62L55.55 20.49L55.63 20.35L55.68 20.19L55.72 20.02L55.73 19.85L55.72 19.68L55.68 19.51L55.63 19.35L55.55 19.21L55.44 19.08L42.01 5.65L41.88 5.54L41.74 5.46L41.58 5.41L41.41 5.37L41.24 5.36L41.07 5.37L40.9 5.41Z" id="b16JoPt56u"></path></defs><g><g><g><use xlink:href="#b3tued2pOH" opacity="1" fill="#000000" fill-opacity="1"></use><g><use xlink:href="#b3tued2pOH" opacity="1" fill-opacity="0" stroke="#000000" stroke-width="1" stroke-opacity="0"></use></g></g><g><use xlink:href="#b1ALTECZCx" opacity="1" fill="#000000" fill-opacity="1"></use><g><use xlink:href="#b1ALTECZCx" opacity="1" fill-opacity="0" stroke="#000000" stroke-width="1" stroke-opacity="0"></use></g></g><g><use xlink:href="#f56a5YK1yd" opacity="1" fill="#000000" fill-opacity="1"></use><g><use xlink:href="#f56a5YK1yd" opacity="1" fill-opacity="0" stroke="#000000" stroke-width="1" stroke-opacity="0"></use></g></g><g><use xlink:href="#b62x4Ahdyy" opacity="1" fill="#000000" fill-opacity="1"></use><g><use xlink:href="#b62x4Ahdyy" opacity="1" fill-opacity="0" stroke="#000000" stroke-width="1" stroke-opacity="0"></use></g></g><g><use xlink:href="#cpwh5kqtp" opacity="1" fill="#000000" fill-opacity="1"></use><g><use xlink:href="#cpwh5kqtp" opacity="1" fill-opacity="0" stroke="#000000" stroke-width="1" stroke-opacity="0"></use></g></g><g><use xlink:href="#baQCoUN0n" opacity="1" fill="#000000" fill-opacity="1"></use><g><use xlink:href="#baQCoUN0n" opacity="1" fill-opacity="0" stroke="#000000" stroke-width="1" stroke-opacity="0"></use></g></g><g><use xlink:href="#b5y7sDww0f" opacity="1" fill="#000000" fill-opacity="1"></use><g><use xlink:href="#b5y7sDww0f" opacity="1" fill-opacity="0" stroke="#000000" stroke-width="1" stroke-opacity="0"></use></g></g><g><use xlink:href="#bAUkWgegA" opacity="1" fill="#000000" fill-opacity="1"></use><g><use xlink:href="#bAUkWgegA" opacity="1" fill-opacity="0" stroke="#000000" stroke-width="1" stroke-opacity="0"></use></g></g><g><use xlink:href="#a7tcMz0O1" opacity="1" fill="#000000" fill-opacity="1"></use><g><use xlink:href="#a7tcMz0O1" opacity="1" fill-opacity="0" stroke="#000000" stroke-width="1" stroke-opacity="0"></use></g></g><g><use xlink:href="#a5iU7soPIh" opacity="1" fill="#000000" fill-opacity="1"></use><g><use xlink:href="#a5iU7soPIh" opacity="1" fill-opacity="0" stroke="#000000" stroke-width="1" stroke-opacity="0"></use></g></g><g><use xlink:href="#d1HX4u3Pn" opacity="1" fill="#000000" fill-opacity="1"></use><g><use xlink:href="#d1HX4u3Pn" opacity="1" fill-opacity="0" stroke="#000000" stroke-width="1" stroke-opacity="0"></use></g></g><g><use xlink:href="#a5z6ShI7xw" opacity="1" fill="#000000" fill-opacity="1"></use><g><use xlink:href="#a5z6ShI7xw" opacity="1" fill-opacity="0" stroke="#000000" stroke-width="1" stroke-opacity="0"></use></g></g><g><use xlink:href="#aNd8ATMfH" opacity="1" fill="#000000" fill-opacity="1"></use><g><use xlink:href="#aNd8ATMfH" opacity="1" fill-opacity="0" stroke="#000000" stroke-width="1" stroke-opacity="0"></use></g></g><g><use xlink:href="#c161v2jzKi" opacity="1" fill="#000000" fill-opacity="1"></use><g><use xlink:href="#c161v2jzKi" opacity="1" fill-opacity="0" stroke="#000000" stroke-width="1" stroke-opacity="0"></use></g></g><g><use xlink:href="#h2e20CnjIv" opacity="1" fill="#000000" fill-opacity="1"></use><g><use xlink:href="#h2e20CnjIv" opacity="1" fill-opacity="0" stroke="#000000" stroke-width="1" stroke-opacity="0"></use></g></g><g><use xlink:href="#a3skIzwt1U" opacity="1" fill="#5ebe3f" fill-opacity="1"></use><g><use xlink:href="#a3skIzwt1U" opacity="1" fill-opacity="0" stroke="#000000" stroke-width="1" stroke-opacity="0"></use></g></g><g><use xlink:href="#bsAYTY6Z9" opacity="1" fill="#009cdf" fill-opacity="1"></use><g><use xlink:href="#bsAYTY6Z9" opacity="1" fill-opacity="0" stroke="#000000" stroke-width="1" stroke-opacity="0"></use></g></g><g><use xlink:href="#b16JoPt56u" opacity="1" fill="#feb900" fill-opacity="1"></use><g><use xlink:href="#b16JoPt56u" opacity="1" fill-opacity="0" stroke="#000000" stroke-width="1" stroke-opacity="0"></use></g></g></g></g></svg>