<?xml version="1.0" encoding="utf-8"?>
<!-- Generator: Adobe Illustrator 17.0.2, SVG Export Plug-In . SVG Version: 6.00 Build 0)  -->
<!DOCTYPE svg PUBLIC "-//W3C//DTD SVG 1.1//EN" "http://www.w3.org/Graphics/SVG/1.1/DTD/svg11.dtd">
<svg version="1.1" id="Vrstva_1" xmlns="http://www.w3.org/2000/svg" xmlns:xlink="http://www.w3.org/1999/xlink" x="0px" y="0px"
	 width="479.233px" height="94.695px" viewBox="9.481 204.402 479.233 94.695"
	 enable-background="new 9.481 204.402 479.233 94.695" xml:space="preserve">
<path fill="#3FAB79" d="M370.542,241.761c-5.982-8.691-13.093-22.122-17.946-30.135c-2.37-3.837-6.095-7.223-11.174-7.223h-42.551
	c-4.966,0-9.029,4.176-10.948,7.111c-5.079,7.901-12.19,21.783-18.059,30.474c-3.837,5.756-4.176,12.754,0,19.526
	c5.643,8.916,13.431,22.235,18.059,30.474c2.144,3.725,6.772,7.111,10.948,7.111h42.438c4.966,0,8.916-3.047,11.174-7.111
	c4.515-8.239,12.528-21.332,17.946-30.361C374.041,255.869,374.718,247.968,370.542,241.761 M337.359,219.865
	c-8.126,3.725-5.192,18.849-25.734,19.752C321.67,235.102,318.849,221.67,337.359,219.865 M353.047,254.063l-6.095,10.835
	c-1.016,1.919-3.386,3.386-5.305,3.386h-4.402c-1.129,1.919-2.144,3.725-2.935,5.192c-1.129,2.032-3.047,3.612-5.53,3.612h-21.219
	c-2.144,0-4.402-1.693-5.53-3.612c-2.37-4.176-6.208-10.835-9.029-15.35c-2.144-3.386-2.822-9.707,3.95-9.707h42.438
	c2.709,0,4.289,1.016,4.966,2.483c0.451-0.113,0.903-0.226,1.242-0.226h6.095C353.386,250.564,354.063,252.144,353.047,254.063"/>
<path fill="#333D4C" d="M47.517,215.35c17.946,0,27.201,10.271,27.201,10.271l-8.239,13.431c0,0-8.126-7.449-18.172-7.449
	c-13.883,0-20.542,10.271-20.542,20.768c0,10.722,7.111,21.783,20.542,21.783c10.948,0,19.3-8.916,19.3-8.916l9.142,13.093
	c0,0-10.271,12.19-29.233,12.19c-22.799,0-38.036-16.14-38.036-37.698C9.368,231.603,25.621,215.35,47.517,215.35"/>
<path fill="#333D4C" d="M123.815,274.041h-22.573l-4.402,15.237H78.555l24.718-72.573h18.623l24.718,72.573H128.33L123.815,274.041z
	 M112.528,233.183c0,0-1.58,7.901-2.935,12.528l-4.176,14.108h14.221l-4.063-14.108c-1.354-4.515-2.935-12.528-2.935-12.528H112.528
	z"/>
<polygon fill="#333D4C" points="154.74,216.591 199.21,216.591 199.21,231.828 172.461,231.828 172.461,247.065 194.695,247.065 
	194.695,262.302 172.461,262.302 172.461,289.278 154.74,289.278 "/>
<polygon fill="#333D4C" points="210.497,216.591 228.33,216.591 228.33,274.041 257.901,274.041 257.901,289.278 210.497,289.278 
	"/>
<path fill="#333D4C" d="M382.957,216.591h17.72v45.937c0,7.675,4.966,11.625,12.641,11.625c7.675,0,12.641-4.063,12.641-11.625
	v-45.937h17.72v45.937c0,16.366-11.964,27.878-30.248,27.878c-18.51,0-30.474-11.625-30.474-27.878L382.957,216.591L382.957,216.591
	z"/>
<g>
	<g>
		<g>
			<defs>
				<path id="SVGID_1_" d="M485.214,219.526c0-6.208-4.966-11.174-11.174-11.174s-11.174,4.966-11.174,11.174
					c0,6.208,4.966,11.174,11.174,11.174S485.214,225.734,485.214,219.526z M488.713,219.526c0,8.126-6.546,14.673-14.673,14.673
					c-8.126,0-14.673-6.546-14.673-14.673c0-8.126,6.546-14.673,14.673-14.673C482.167,204.853,488.713,211.4,488.713,219.526z"/>
			</defs>
			<clipPath id="SVGID_2_">
				<use xlink:href="#SVGID_1_"  overflow="visible"/>
			</clipPath>
			<rect x="453.499" y="198.984" clip-path="url(#SVGID_2_)" fill="#858B94" width="41.084" height="41.084"/>
		</g>
	</g>
	<g>
		<g>
			<defs>
				<path id="SVGID_3_" d="M480.135,225.734h-2.709c-0.451,0-0.79-0.226-1.016-0.564l-2.144-3.612
					c-0.113-0.113-0.226-0.226-0.339-0.339s-0.339-0.113-0.564-0.113h-0.79v4.628h-2.935v-12.641h4.063
					c0.903,0,1.693,0.113,2.37,0.226c0.677,0.226,1.129,0.451,1.58,0.79c0.451,0.339,0.677,0.677,0.903,1.242
					c0.226,0.451,0.226,0.903,0.226,1.467c0,0.451,0,0.79-0.113,1.129c-0.113,0.339-0.226,0.677-0.451,1.016
					c-0.226,0.339-0.451,0.564-0.79,0.79c-0.339,0.226-0.677,0.451-1.129,0.564c0.226,0.113,0.339,0.226,0.564,0.339
					c0.113,0.113,0.339,0.339,0.451,0.564L480.135,225.734z M473.928,218.962c0.451,0,0.79,0,1.016-0.113
					c0.226-0.113,0.564-0.226,0.677-0.451c0.226-0.226,0.339-0.339,0.339-0.677c0.113-0.226,0.113-0.451,0.113-0.79
					c0-0.564-0.226-1.016-0.564-1.354c-0.339-0.339-0.903-0.451-1.693-0.451h-1.129v3.725h1.242V218.962z"/>
			</defs>
			<clipPath id="SVGID_4_">
				<use xlink:href="#SVGID_3_"  overflow="visible"/>
			</clipPath>
			<rect x="463.883" y="207.223" clip-path="url(#SVGID_4_)" fill="#858B94" width="22.009" height="24.379"/>
		</g>
	</g>
</g>
</svg>
